<svg height="512pt" viewBox="-88 0 512 512" width="512pt" xmlns="http://www.w3.org/2000/svg"><path d="m320.265625 456.835938c0 22.089843-18.074219 40.164062-40.164063 40.164062h-224.9375c-22.09375 0-40.164062-18.074219-40.164062-40.164062v-401.667969c0-22.09375 18.070312-40.167969 40.164062-40.167969h224.9375c22.089844 0 40.164063 18.074219 40.164063 40.167969zm0 0" fill="#00acb3"/><path d="m280.101562 15h-112.46875v482h112.46875c22.089844 0 40.164063-18.074219 40.164063-40.164062v-401.667969c0-22.09375-18.074219-40.167969-40.164063-40.167969zm0 0" fill="#008186"/><path d="m280.101562 0h-224.9375c-30.417968 0-55.164062 24.746094-55.164062 55.167969v401.667969c0 30.417968 24.746094 55.164062 55.164062 55.164062h224.9375c30.417969 0 55.164063-24.746094 55.164063-55.164062v-401.667969c0-30.421875-24.746094-55.167969-55.164063-55.167969zm25.164063 456.835938c0 13.875-11.289063 25.164062-25.164063 25.164062h-224.9375c-13.875 0-25.164062-11.289062-25.164062-25.164062v-401.667969c0-13.878907 11.289062-25.167969 25.164062-25.167969h65.390626c-.023438.355469-.054688.707031-.054688 1.066406 0 8.285156 6.714844 15 15 15h64.265625c8.285156 0 15-6.714844 15-15 0-.359375-.027344-.710937-.054687-1.066406h65.390624c13.875 0 25.164063 11.289062 25.164063 25.167969zm0 0" fill="#3d5959"/><path d="m95.332031 399.53125c-3.839843 0-7.679687-1.460938-10.605469-4.390625-5.859374-5.859375-5.859374-15.355469 0-21.214844l144.601563-144.601562c5.859375-5.855469 15.355469-5.855469 21.210937 0 5.859376 5.859375 5.859376 15.355469 0 21.214843l-144.601562 144.601563c-2.925781 2.925781-6.765625 4.390625-10.605469 4.390625zm0 0" fill="#fef4f5"/><path d="m95.332031 287.066406c-3.839843 0-7.679687-1.464844-10.605469-4.394531-5.859374-5.855469-5.859374-15.355469 0-21.210937l144.601563-144.601563c5.859375-5.855469 15.355469-5.855469 21.210937 0 5.859376 5.859375 5.859376 15.355469 0 21.214844l-144.601562 144.597656c-2.925781 2.929687-6.765625 4.394531-10.605469 4.394531zm0 0" fill="#fef4f5"/><path d="m280.101562 0h-112.46875v46.066406h32.132813c8.285156 0 15-6.714844 15-15 0-.359375-.027344-.710937-.054687-1.066406h65.390624c13.875 0 25.164063 11.289062 25.164063 25.167969v401.667969c0 13.875-11.289063 25.164062-25.164063 25.164062h-112.46875v30h112.46875c30.417969 0 55.164063-24.746094 55.164063-55.164062v-401.667969c0-30.421875-24.746094-55.167969-55.164063-55.167969zm0 0" fill="#293939"/><g fill="#d5eded"><path d="m250.539062 229.328125c-5.859374-5.859375-15.355468-5.859375-21.214843 0l-61.691407 61.691406v42.425781l82.90625-82.90625c5.859376-5.855468 5.859376-15.355468 0-21.210937zm0 0"/><path d="m250.539062 116.859375c-5.859374-5.855469-15.355468-5.855469-21.214843 0l-61.691407 61.695313v42.425781l82.90625-82.90625c5.859376-5.855469 5.859376-15.355469 0-21.214844zm0 0"/></g></svg>